<?xml version="1.0" encoding="UTF-8"?>
<!DOCTYPE svg PUBLIC "-//W3C//DTD SVG 1.1//EN" "http://www.w3.org/Graphics/SVG/1.1/DTD/svg11.dtd">
<svg xmlns="http://www.w3.org/2000/svg" version="1.1" width="246px" height="354px" style="shape-rendering:geometricPrecision; text-rendering:geometricPrecision; image-rendering:optimizeQuality; fill-rule:evenodd; clip-rule:evenodd" xmlns:xlink="http://www.w3.org/1999/xlink">
<g><path style="opacity:0.982" fill="#241e1d" d="M 55.5,27.5 C 111.834,27.3333 168.168,27.5 224.5,28C 235.916,33.9986 239.749,43.1653 236,55.5C 233.438,61.0611 229.272,64.8945 223.5,67C 218.177,67.4994 212.844,67.666 207.5,67.5C 207.343,68.8734 207.51,70.2068 208,71.5C 218.302,90.1032 226.968,109.436 234,129.5C 235.387,135.436 236.387,141.436 237,147.5C 237.667,206.167 237.667,264.833 237,323.5C 236.097,324.701 234.931,325.535 233.5,326C 159.5,326.667 85.5,326.667 11.5,326C 10.0692,325.535 8.90252,324.701 8,323.5C 7.03461,262.478 7.36795,201.478 9,140.5C 10.3964,131.581 12.7297,122.915 16,114.5C 22.7279,100.044 29.7279,85.7107 37,71.5C 37.082,62.0924 37.7486,52.7591 39,43.5C 42.4377,35.8934 47.9377,30.56 55.5,27.5 Z"/></g>
<g><path style="opacity:1" fill="#3e3e71" d="M 59.5,37.5 C 106.168,37.3333 152.835,37.5 199.5,38C 198.083,40.9831 197.25,44.1498 197,47.5C 196.5,54.1583 196.334,60.825 196.5,67.5C 147.167,67.5 97.8333,67.5 48.5,67.5C 48.3337,60.825 48.5004,54.1583 49,47.5C 51.1059,42.5573 54.6059,39.224 59.5,37.5 Z"/></g>
<g><path style="opacity:1" fill="#2a2a5d" d="M 214.5,37.5 C 223.97,37.474 227.804,42.1407 226,51.5C 224.749,54.3807 222.583,56.214 219.5,57C 215.514,57.4988 211.514,57.6655 207.5,57.5C 207.334,52.8215 207.501,48.1548 208,43.5C 209.436,40.5581 211.603,38.5581 214.5,37.5 Z"/></g>
<g><path style="opacity:1" fill="#534230" d="M 46.5,77.5 C 95.6683,76.1689 145.002,76.1689 194.5,77.5C 194.376,78.1067 194.043,78.44 193.5,78.5C 191.052,77.5269 188.385,77.1936 185.5,77.5C 139.167,77.5 92.8333,77.5 46.5,77.5 Z"/></g>
<g><path style="opacity:1" fill="#666598" d="M 46.5,77.5 C 92.8333,77.5 139.167,77.5 185.5,77.5C 176.195,93.1157 169.362,109.782 165,127.5C 164.034,133.13 163.367,138.796 163,144.5C 162.667,161.833 162.333,179.167 162,196.5C 159.345,224.229 150.012,249.896 134,273.5C 131.81,275.388 129.977,277.555 128.5,280C 124.196,282.959 119.862,285.959 115.5,289C 108.75,291.806 102.083,294.806 95.5,298C 82.9295,301.855 70.2629,305.522 57.5,309C 44.5812,311.033 31.5812,311.866 18.5,311.5C 18.3333,257.499 18.5,203.499 19,149.5C 20.2514,138.161 22.9181,127.161 27,116.5C 33.5133,103.473 40.0133,90.4734 46.5,77.5 Z"/></g>
<g><path style="opacity:1" fill="#515285" d="M 185.5,77.5 C 188.385,77.1936 191.052,77.5269 193.5,78.5C 180.841,98.8303 172.341,120.83 168,144.5C 167.5,201.499 167.333,258.499 167.5,315.5C 117.833,315.5 68.1667,315.5 18.5,315.5C 18.5,314.167 18.5,312.833 18.5,311.5C 31.5812,311.866 44.5812,311.033 57.5,309C 70.2629,305.522 82.9295,301.855 95.5,298C 102.083,294.806 108.75,291.806 115.5,289C 119.862,285.959 124.196,282.959 128.5,280C 129.977,277.555 131.81,275.388 134,273.5C 150.012,249.896 159.345,224.229 162,196.5C 162.333,179.167 162.667,161.833 163,144.5C 163.367,138.796 164.034,133.13 165,127.5C 169.362,109.782 176.195,93.1157 185.5,77.5 Z"/></g>
<g><path style="opacity:1" fill="#2d2622" d="M 71.5,86.5 C 95.5023,86.3334 119.502,86.5 143.5,87C 148.395,89.8235 148.729,93.1568 144.5,97C 120.167,97.6667 95.8333,97.6667 71.5,97C 66.2721,93.5116 66.2721,90.0116 71.5,86.5 Z"/></g>
<g><path style="opacity:1" fill="#65422c" d="M 197.5,126.5 C 196.833,116.5 196.167,106.5 195.5,96.5C 195.987,95.5266 196.487,94.5266 197,93.5C 197.5,104.495 197.667,115.495 197.5,126.5 Z"/></g>
<g><path style="opacity:1" fill="#3e3e71" d="M 195.5,96.5 C 196.167,106.5 196.833,116.5 197.5,126.5C 198.174,131.151 200.841,132.651 205.5,131C 206.126,130.25 206.626,129.416 207,128.5C 207.333,117.5 207.667,106.5 208,95.5C 215.907,109.313 221.574,123.979 225,139.5C 226.638,195.472 226.971,251.472 226,307.5C 220,301.5 214,295.5 208,289.5C 207.667,271.167 207.333,252.833 207,234.5C 202.856,229.193 199.523,229.859 197,236.5C 196.667,254.167 196.333,271.833 196,289.5C 190,295.5 184,301.5 178,307.5C 177.333,254.833 177.333,202.167 178,149.5C 179.013,138.1 181.68,127.1 186,116.5C 189.451,109.933 192.618,103.266 195.5,96.5 Z"/></g>
<g><path style="opacity:1" fill="#25201e" d="M 61.5,106.5 C 89.1687,106.333 116.835,106.5 144.5,107C 147.29,109.21 148.123,112.044 147,115.5C 143.667,126.833 140.333,138.167 137,149.5C 136.5,150 136,150.5 135.5,151C 106.791,151.825 78.1245,151.658 49.5,150.5C 48.4471,149.562 47.7804,148.395 47.5,147C 50.9223,134.811 54.4223,122.644 58,110.5C 58.6897,108.65 59.8564,107.316 61.5,106.5 Z"/></g>
<g><path style="opacity:1" fill="#754187" d="M 66.5,116.5 C 89.5,116.5 112.5,116.5 135.5,116.5C 134.082,125.253 131.749,133.753 128.5,142C 105.502,142.5 82.5024,142.667 59.5,142.5C 61.5216,133.747 63.8549,125.08 66.5,116.5 Z"/></g>
<g><path style="opacity:1" fill="#020102" d="M 76.5,123.5 C 78.8814,125.524 79.0481,127.857 77,130.5C 74.3466,133.194 71.1799,134.027 67.5,133C 68.6478,129.281 69.3145,125.448 69.5,121.5C 72.2282,121.171 74.5615,121.837 76.5,123.5 Z"/></g>
<g><path style="opacity:1" fill="#030104" d="M 90.5,121.5 C 91.5276,125.426 91.1942,129.426 89.5,133.5C 89.1667,133.333 88.8333,133.167 88.5,133C 89.6478,129.281 90.3145,125.448 90.5,121.5 Z"/></g>
<g><path style="opacity:1" fill="#713e82" d="M 76.5,123.5 C 77.6627,129.334 75.3294,132 69.5,131.5C 69.8333,128.833 70.1667,126.167 70.5,123.5C 72.5,123.5 74.5,123.5 76.5,123.5 Z"/></g>
<g><path style="opacity:1" fill="#1b121d" d="M 82.5,124.5 C 85.8333,124.5 87.5,126.167 87.5,129.5C 85.396,129.201 83.396,129.534 81.5,130.5C 83.3381,131.189 85.0048,131.522 86.5,131.5C 83.1321,134.164 80.7987,133.331 79.5,129C 80.3146,127.357 81.3146,125.857 82.5,124.5 Z"/></g>
<g><path style="opacity:1" fill="#040205" d="M 94.5,124.5 C 95.0967,124.735 95.4301,125.235 95.5,126C 94.993,128.541 94.3263,131.041 93.5,133.5C 93.1667,133.333 92.8333,133.167 92.5,133C 93.3253,130.222 93.992,127.389 94.5,124.5 Z"/></g>
<g><path style="opacity:1" fill="#1b121d" d="M 108.5,124.5 C 111.833,124.5 113.5,126.167 113.5,129.5C 111.396,129.201 109.396,129.534 107.5,130.5C 109.338,131.189 111.005,131.522 112.5,131.5C 109.132,134.164 106.799,133.331 105.5,129C 106.315,127.357 107.315,125.857 108.5,124.5 Z"/></g>
<g><path style="opacity:1" fill="#0c060e" d="M 116.5,124.5 C 117.975,125.262 119.309,125.595 120.5,125.5C 117.409,127.241 115.742,129.907 115.5,133.5C 115.167,133.333 114.833,133.167 114.5,133C 115.325,130.222 115.992,127.389 116.5,124.5 Z"/></g>
<g><path style="opacity:1" fill="#140c15" d="M 121.5,125.5 C 121.56,124.957 121.893,124.624 122.5,124.5C 122.794,133.383 124.461,133.716 127.5,125.5C 128.167,124.167 128.833,124.167 129.5,125.5C 127.547,129.941 124.713,133.607 121,136.5C 120.5,136.167 120,135.833 119.5,135.5C 120.325,134.614 121.325,134.281 122.5,134.5C 122.81,131.287 122.477,128.287 121.5,125.5 Z"/></g>
<g><path style="opacity:1" fill="#150b16" d="M 97.5,125.5 C 97.56,124.957 97.8933,124.624 98.5,124.5C 98.9247,131.95 100.425,132.284 103,125.5C 103.654,124.304 104.154,124.304 104.5,125.5C 103.334,128.503 101.667,131.17 99.5,133.5C 98.8324,130.694 98.1657,128.028 97.5,125.5 Z"/></g>
<g><path style="opacity:1" fill="#29211f" d="M 199.5,151.5 C 202.652,150.959 205.152,151.959 207,154.5C 207.667,172.5 207.667,190.5 207,208.5C 202.675,212.752 199.342,212.085 197,206.5C 196.333,189.833 196.333,173.167 197,156.5C 197.366,154.548 198.199,152.882 199.5,151.5 Z"/></g>
<g><path style="opacity:1" fill="#241f1e" d="M 50.5,161.5 C 75.5022,161.333 100.502,161.5 125.5,162C 128.167,165 128.167,168 125.5,171C 100.5,171.667 75.5,171.667 50.5,171C 46.7783,167.936 46.7783,164.77 50.5,161.5 Z"/></g>
<g><path style="opacity:1" fill="#75721f" d="M 65.5,184.5 C 68.1873,184.336 70.854,184.503 73.5,185C 73.9574,185.414 74.2907,185.914 74.5,186.5C 71.9135,187.48 69.2469,187.813 66.5,187.5C 66.5,190.167 66.5,192.833 66.5,195.5C 65.5,195.5 64.5,195.5 63.5,195.5C 63.0097,191.513 63.6764,187.846 65.5,184.5 Z"/></g>
<g><path style="opacity:1" fill="#6f6f1c" d="M 98.5,184.5 C 101.777,184.216 104.943,184.549 108,185.5C 110.135,189.104 109.968,192.437 107.5,195.5C 106.52,192.914 106.187,190.247 106.5,187.5C 103.833,187.5 101.167,187.5 98.5,187.5C 98.5,186.5 98.5,185.5 98.5,184.5 Z"/></g>
<g><path style="opacity:1" fill="#644162" d="M 93.5,190.5 C 96.7766,190.216 99.9433,190.549 103,191.5C 104.855,200.99 101.522,203.656 93,199.5C 92.3658,196.445 92.5325,193.445 93.5,190.5 Z"/></g>
<g><path style="opacity:1" fill="#613c5c" d="M 86.5,197.5 C 85.1667,197.5 83.8333,197.5 82.5,197.5C 81.1667,191.5 83.5,189.167 89.5,190.5C 89.5,191.833 89.5,193.167 89.5,194.5C 88.5,194.5 87.5,194.5 86.5,194.5C 86.5,195.5 86.5,196.5 86.5,197.5 Z"/></g>
<g><path style="opacity:1" fill="#644062" d="M 70.5,190.5 C 73.4475,190.223 76.2809,190.556 79,191.5C 81.8515,200.649 78.8515,203.649 70,200.5C 69.2534,197.076 69.42,193.743 70.5,190.5 Z"/></g>
<g><path style="opacity:1" fill="#6a4168" d="M 86.5,197.5 C 87.5,197.5 88.5,197.5 89.5,197.5C 89.5,199.833 89.5,202.167 89.5,204.5C 87.5,204.5 85.5,204.5 83.5,204.5C 82.0464,201.6 83.0464,200.267 86.5,200.5C 86.5,199.5 86.5,198.5 86.5,197.5 Z"/></g>
<g><path style="opacity:1" fill="#70446e" d="M 83.5,204.5 C 83.5,206.5 83.5,208.5 83.5,210.5C 82.1667,210.5 80.8333,210.5 79.5,210.5C 79.5,209.5 79.5,208.5 79.5,207.5C 78.5,207.5 77.5,207.5 76.5,207.5C 76.5,206.5 76.5,205.5 76.5,204.5C 78.8333,204.5 81.1667,204.5 83.5,204.5 Z"/></g>
<g><path style="opacity:1" fill="#71456f" d="M 92.5,204.5 C 98.4169,203.456 101.75,205.789 102.5,211.5C 100.5,211.5 98.5,211.5 96.5,211.5C 96.8333,208.5 95.5,207.167 92.5,207.5C 92.5,206.5 92.5,205.5 92.5,204.5 Z"/></g>
<g><path style="opacity:1" fill="#7a4b84" d="M 93.5,214.5 C 96.5,214.5 99.5,214.5 102.5,214.5C 102.5,217.833 102.5,221.167 102.5,224.5C 99.5,224.5 96.5,224.5 93.5,224.5C 93.5,221.167 93.5,217.833 93.5,214.5 Z"/></g>
<g><path style="opacity:1" fill="#7f4c85" d="M 83.5,217.5 C 84.5,217.5 85.5,217.5 86.5,217.5C 86.5,218.833 86.5,220.167 86.5,221.5C 87.5,221.5 88.5,221.5 89.5,221.5C 89.5,222.5 89.5,223.5 89.5,224.5C 86.1667,224.5 82.8333,224.5 79.5,224.5C 80.7092,222.182 82.0426,219.849 83.5,217.5 Z"/></g>
<g><path style="opacity:1" fill="#b4b52a" d="M 107.5,219.5 C 109.978,222.53 110.145,225.863 108,229.5C 104.875,230.787 101.709,230.787 98.5,229.5C 98.7093,228.914 99.0426,228.414 99.5,228C 101.81,227.503 104.143,227.337 106.5,227.5C 106.279,224.721 106.612,222.054 107.5,219.5 Z"/></g>
<g><path style="opacity:1" fill="#b6b92a" d="M 64.5,219.5 C 65.1174,219.611 65.6174,219.944 66,220.5C 66.4966,222.81 66.6633,225.143 66.5,227.5C 69.3965,227.125 72.0632,227.625 74.5,229C 64.9059,232.574 61.5725,229.407 64.5,219.5 Z"/></g>
<g><path style="opacity:1" fill="#c1bc32" d="M 62.5,236.5 C 64.4959,235.312 65.3293,235.979 65,238.5C 64.2917,237.619 63.4584,236.953 62.5,236.5 Z"/></g>
<g><path style="opacity:1" fill="#bdc129" d="M 67.5,234.5 C 70.7973,234.329 71.1306,234.995 68.5,236.5C 71.1306,238.005 70.7973,238.671 67.5,238.5C 67.5,237.167 67.5,235.833 67.5,234.5 Z"/></g>
<g><path style="opacity:1" fill="#b8b439" d="M 74.5,239.5 C 74.1667,239.5 73.8333,239.5 73.5,239.5C 70.5787,235.415 71.5787,234.082 76.5,235.5C 78.4342,235.099 79.9342,234.099 81,232.5C 81.4955,234.473 81.6621,236.473 81.5,238.5C 79.7376,238.643 78.0709,238.309 76.5,237.5C 75.4777,237.855 74.811,238.522 74.5,239.5 Z"/></g>
<g><path style="opacity:1" fill="#656699" d="M 78.5,235.5 C 79.2891,235.783 79.9558,236.283 80.5,237C 79.184,237.528 78.5173,237.028 78.5,235.5 Z"/></g>
<g><path style="opacity:1" fill="#beba30" d="M 82.5,234.5 C 85.5,234.167 86.8333,235.5 86.5,238.5C 85.1667,238.5 83.8333,238.5 82.5,238.5C 82.5,237.167 82.5,235.833 82.5,234.5 Z"/></g>
<g><path style="opacity:1" fill="#f29f21" d="M 73.5,239.5 C 73.8333,239.5 74.1667,239.5 74.5,239.5C 81.938,239.299 87.938,241.965 92.5,247.5C 92.2249,249.758 91.2249,250.092 89.5,248.5C 87.0177,249.067 84.6843,249.734 82.5,250.5C 77.9589,250.157 73.6256,250.157 69.5,250.5C 65.7382,250.373 62.0715,249.706 58.5,248.5C 57.6371,247.274 57.6371,245.94 58.5,244.5C 62.7824,240.867 67.7824,239.201 73.5,239.5 Z"/></g>
<g><path style="opacity:1" fill="#a28124" d="M 119.5,257.5 C 118.395,258.6 117.062,259.267 115.5,259.5C 116.246,255.93 117.579,252.596 119.5,249.5C 118.192,248.374 116.858,248.374 115.5,249.5C 114.508,252.823 113.508,256.156 112.5,259.5C 111.833,259.5 111.167,259.5 110.5,259.5C 111.58,256.257 111.747,252.924 111,249.5C 109.933,248.809 108.766,248.309 107.5,248C 108.167,247 108.833,246 109.5,245C 107.937,244.241 106.937,243.074 106.5,241.5C 108.767,243.787 110.434,243.62 111.5,241C 113.112,240.28 114.612,240.446 116,241.5C 117.901,245.94 120.735,249.607 124.5,252.5C 122.599,254.006 120.932,255.673 119.5,257.5 Z"/></g>
<g><path style="opacity:1" fill="#ecbf2a" d="M 115.5,249.5 C 114.778,249.918 114.278,250.584 114,251.5C 113.035,248.637 113.702,246.304 116,244.5C 116.5,244.833 117,245.167 117.5,245.5C 116.37,246.622 115.703,247.956 115.5,249.5 Z"/></g>
<g><path style="opacity:1" fill="#cea626" d="M 106.5,241.5 C 106.937,243.074 107.937,244.241 109.5,245C 108.833,246 108.167,247 107.5,248C 108.766,248.309 109.933,248.809 111,249.5C 111.747,252.924 111.58,256.257 110.5,259.5C 109.833,259.5 109.5,259.833 109.5,260.5C 106.823,262.432 103.823,262.932 100.5,262C 99.7476,261.329 99.4142,260.496 99.5,259.5C 99.3364,253.833 99.0031,253.5 98.5,258.5C 97.1667,258.5 95.8333,258.5 94.5,258.5C 94.5,257.167 94.5,255.833 94.5,254.5C 98.2861,253.305 98.2861,252.638 94.5,252.5C 94.9389,247.744 97.2723,244.411 101.5,242.5C 103.042,241.699 104.708,241.366 106.5,241.5 Z"/></g>
<g><path style="opacity:1" fill="#ac721e" d="M 101.5,242.5 C 97.2723,244.411 94.9389,247.744 94.5,252.5C 90.5,251.833 86.5,251.167 82.5,250.5C 84.6843,249.734 87.0177,249.067 89.5,248.5C 91.2249,250.092 92.2249,249.758 92.5,247.5C 93.1174,247.611 93.6174,247.944 94,248.5C 95.1015,246.064 96.6015,243.897 98.5,242C 99.7494,241.26 100.749,241.427 101.5,242.5 Z"/></g>
<g><path style="opacity:1" fill="#9f6a1a" d="M 58.5,244.5 C 57.6371,245.94 57.6371,247.274 58.5,248.5C 62.0715,249.706 65.7382,250.373 69.5,250.5C 64.3595,251.488 59.0262,251.821 53.5,251.5C 54.0102,248.326 55.6769,245.992 58.5,244.5 Z"/></g>
<g><path style="opacity:1" fill="#768c2e" d="M 82.5,250.5 C 86.5,251.167 90.5,251.833 94.5,252.5C 98.2861,252.638 98.2861,253.305 94.5,254.5C 92.8212,254.285 91.8212,254.952 91.5,256.5C 90.8333,256.5 90.1667,256.5 89.5,256.5C 87.4962,254.81 85.1629,253.476 82.5,252.5C 81.452,253.548 80.452,254.548 79.5,255.5C 78.2652,255.279 77.2652,254.612 76.5,253.5C 71.1708,254.218 65.8375,254.884 60.5,255.5C 59.5,252.833 58.5,252.833 57.5,255.5C 56.4168,255.539 55.4168,255.873 54.5,256.5C 53.2311,254.82 51.5644,253.653 49.5,253C 50.5634,251.812 51.8967,251.312 53.5,251.5C 59.0262,251.821 64.3595,251.488 69.5,250.5C 73.6256,250.157 77.9589,250.157 82.5,250.5 Z"/></g>
<g><path style="opacity:1" fill="#61541d" d="M 89.5,256.5 C 86.1156,256.263 82.7822,255.93 79.5,255.5C 80.452,254.548 81.452,253.548 82.5,252.5C 85.1629,253.476 87.4962,254.81 89.5,256.5 Z"/></g>
<g><path style="opacity:1" fill="#7b2314" d="M 60.5,255.5 C 59.6618,255.842 59.3284,256.508 59.5,257.5C 58.5,257.5 57.5,257.5 56.5,257.5C 56.8333,256.833 57.1667,256.167 57.5,255.5C 58.5,252.833 59.5,252.833 60.5,255.5 Z"/></g>
<g><path style="opacity:1" fill="#ba2a1d" d="M 79.5,255.5 C 82.7822,255.93 86.1156,256.263 89.5,256.5C 90.1667,256.5 90.8333,256.5 91.5,256.5C 89.777,257.8 87.6103,258.467 85,258.5C 79.8416,257.982 74.6749,257.649 69.5,257.5C 66.1667,257.5 62.8333,257.5 59.5,257.5C 59.3284,256.508 59.6618,255.842 60.5,255.5C 65.8375,254.884 71.1708,254.218 76.5,253.5C 77.2652,254.612 78.2652,255.279 79.5,255.5 Z"/></g>
<g><path style="opacity:1" fill="#e9bc2a" d="M 115.5,259.5 C 114.5,259.5 113.5,259.5 112.5,259.5C 113.508,256.156 114.508,252.823 115.5,249.5C 116.858,248.374 118.192,248.374 119.5,249.5C 117.579,252.596 116.246,255.93 115.5,259.5 Z"/></g>
<g><path style="opacity:1" fill="#b29c7b" d="M 94.5,254.5 C 94.5,255.833 94.5,257.167 94.5,258.5C 92.0122,260.388 89.0122,261.055 85.5,260.5C 83.3926,259.532 81.0593,259.198 78.5,259.5C 74.9438,259.25 71.2772,259.083 67.5,259C 68.4158,258.722 69.0825,258.222 69.5,257.5C 74.6749,257.649 79.8416,257.982 85,258.5C 87.6103,258.467 89.777,257.8 91.5,256.5C 91.8212,254.952 92.8212,254.285 94.5,254.5 Z"/></g>
<g><path style="opacity:1" fill="#a58547" d="M 56.5,257.5 C 57.5,257.5 58.5,257.5 59.5,257.5C 62.8333,257.5 66.1667,257.5 69.5,257.5C 69.0825,258.222 68.4158,258.722 67.5,259C 71.2772,259.083 74.9438,259.25 78.5,259.5C 76.6045,262.896 74.1045,263.23 71,260.5C 69.6153,260.514 68.4486,260.848 67.5,261.5C 64.4824,261.296 61.4824,260.963 58.5,260.5C 58.2648,259.903 57.7648,259.57 57,259.5C 55.9889,260.056 55.1556,260.722 54.5,261.5C 54.1568,259.517 54.8235,258.183 56.5,257.5 Z"/></g>
<g><path style="opacity:1" fill="#903421" d="M 119.5,257.5 C 119.741,259.898 119.074,261.898 117.5,263.5C 117.5,262.5 117.5,261.5 117.5,260.5C 114.833,260.5 112.167,260.5 109.5,260.5C 109.5,259.833 109.833,259.5 110.5,259.5C 111.167,259.5 111.833,259.5 112.5,259.5C 113.5,259.5 114.5,259.5 115.5,259.5C 117.062,259.267 118.395,258.6 119.5,257.5 Z"/></g>
<g><path style="opacity:1" fill="#4a8638" d="M 58.5,260.5 C 55.6213,261.803 54.9546,263.803 56.5,266.5C 56.1583,267.338 55.4916,267.672 54.5,267.5C 49.5582,265.064 49.5582,263.064 54.5,261.5C 55.1556,260.722 55.9889,260.056 57,259.5C 57.7648,259.57 58.2648,259.903 58.5,260.5 Z"/></g>
<g><path style="opacity:1" fill="#e7c332" d="M 78.5,259.5 C 81.0593,259.198 83.3926,259.532 85.5,260.5C 81.9069,261.002 78.5736,262.335 75.5,264.5C 74.8333,264.5 74.1667,264.5 73.5,264.5C 71.7837,262.975 69.7837,261.975 67.5,261.5C 68.4486,260.848 69.6153,260.514 71,260.5C 74.1045,263.23 76.6045,262.896 78.5,259.5 Z"/></g>
<g><path style="opacity:1" fill="#ce3524" d="M 99.5,259.5 C 99.4142,260.496 99.7476,261.329 100.5,262C 103.823,262.932 106.823,262.432 109.5,260.5C 112.167,260.5 114.833,260.5 117.5,260.5C 117.5,261.5 117.5,262.5 117.5,263.5C 117.737,264.791 117.404,265.791 116.5,266.5C 111.505,268.103 106.671,267.77 102,265.5C 100.951,267.107 99.451,267.773 97.5,267.5C 96.8288,266.153 96.8288,264.986 97.5,264C 96.9056,263.536 96.2389,263.369 95.5,263.5C 95.5,262.167 95.5,260.833 95.5,259.5C 96.8333,259.5 98.1667,259.5 99.5,259.5 Z"/></g>
<g><path style="opacity:1" fill="#632312" d="M 58.5,260.5 C 61.4824,260.963 64.4824,261.296 67.5,261.5C 69.7837,261.975 71.7837,262.975 73.5,264.5C 68.0266,265.617 62.36,266.283 56.5,266.5C 54.9546,263.803 55.6213,261.803 58.5,260.5 Z"/></g>
<g><path style="opacity:1" fill="#6e2915" d="M 99.5,259.5 C 98.1667,259.5 96.8333,259.5 95.5,259.5C 95.5,260.833 95.5,262.167 95.5,263.5C 93.9468,265.385 91.9468,266.385 89.5,266.5C 85.4862,266.666 81.4862,266.499 77.5,266C 76.5842,265.722 75.9175,265.222 75.5,264.5C 78.5736,262.335 81.9069,261.002 85.5,260.5C 89.0122,261.055 92.0122,260.388 94.5,258.5C 95.8333,258.5 97.1667,258.5 98.5,258.5C 99.0031,253.5 99.3364,253.833 99.5,259.5 Z"/></g>
<g><path style="opacity:1" fill="#467731" d="M 95.5,263.5 C 96.2389,263.369 96.9056,263.536 97.5,264C 96.8288,264.986 96.8288,266.153 97.5,267.5C 97.1667,267.5 96.8333,267.5 96.5,267.5C 95.5,267.5 94.5,267.5 93.5,267.5C 92.8333,267.5 92.1667,267.5 91.5,267.5C 90.5084,267.672 89.8417,267.338 89.5,266.5C 91.9468,266.385 93.9468,265.385 95.5,263.5 Z"/></g>
<g><path style="opacity:1" fill="#caa904" d="M 116.5,266.5 C 116.5,266.833 116.5,267.167 116.5,267.5C 109.891,268.423 103.224,268.756 96.5,268.5C 96.5,268.167 96.5,267.833 96.5,267.5C 96.8333,267.5 97.1667,267.5 97.5,267.5C 99.451,267.773 100.951,267.107 102,265.5C 106.671,267.77 111.505,268.103 116.5,266.5 Z"/></g>
<g><path style="opacity:1" fill="#f7da33" d="M 91.5,267.5 C 92.1667,267.5 92.8333,267.5 93.5,267.5C 93.7678,269.099 93.4345,270.432 92.5,271.5C 90.8624,270.295 90.5291,268.962 91.5,267.5 Z"/></g>
<g><path style="opacity:1" fill="#db3b28" d="M 116.5,267.5 C 116.741,270.034 115.741,271.7 113.5,272.5C 111.5,272.5 109.5,272.5 107.5,272.5C 106.833,272.833 106.167,273.167 105.5,273.5C 103.393,272.532 101.059,272.198 98.5,272.5C 97.8826,272.611 97.3826,272.944 97,273.5C 96.5065,271.866 96.3398,270.199 96.5,268.5C 103.224,268.756 109.891,268.423 116.5,267.5 Z"/></g>
<g><path style="opacity:1" fill="#bc8423" d="M 73.5,264.5 C 74.1667,264.5 74.8333,264.5 75.5,264.5C 75.9175,265.222 76.5842,265.722 77.5,266C 81.4862,266.499 85.4862,266.666 89.5,266.5C 89.8417,267.338 90.5084,267.672 91.5,267.5C 90.5291,268.962 90.8624,270.295 92.5,271.5C 92.5,271.833 92.5,272.167 92.5,272.5C 91.1779,272.33 90.0113,272.663 89,273.5C 88.5026,276.146 88.3359,278.813 88.5,281.5C 87.8333,279.167 87.1667,276.833 86.5,274.5C 85.0101,272.72 83.0101,272.054 80.5,272.5C 82.3691,271.835 84.3691,271.169 86.5,270.5C 77.5166,266.676 68.5166,266.676 59.5,270.5C 61.6309,271.169 63.6309,271.835 65.5,272.5C 63.5,272.5 61.5,272.5 59.5,272.5C 58.6618,272.842 58.3284,273.508 58.5,274.5C 55.9203,272.911 54.587,270.578 54.5,267.5C 55.4916,267.672 56.1583,267.338 56.5,266.5C 62.36,266.283 68.0266,265.617 73.5,264.5 Z"/></g>
<g><path style="opacity:1" fill="#f2a11e" d="M 80.5,272.5 C 79.8333,272.5 79.1667,272.5 78.5,272.5C 77.8333,272.833 77.1667,273.167 76.5,273.5C 74.7697,272.088 73.2697,272.422 72,274.5C 71.2904,273.027 70.1238,272.36 68.5,272.5C 67.8333,273.167 67.1667,273.833 66.5,274.5C 66.1667,273.833 65.8333,273.167 65.5,272.5C 63.6309,271.835 61.6309,271.169 59.5,270.5C 68.5166,266.676 77.5166,266.676 86.5,270.5C 84.3691,271.169 82.3691,271.835 80.5,272.5 Z"/></g>
<g><path style="opacity:1" fill="#9b7c49" d="M 93.5,267.5 C 94.5,267.5 95.5,267.5 96.5,267.5C 96.5,267.833 96.5,268.167 96.5,268.5C 96.3398,270.199 96.5065,271.866 97,273.5C 97.3826,272.944 97.8826,272.611 98.5,272.5C 98.5,275.833 98.5,279.167 98.5,282.5C 97.7482,280.43 97.0816,277.763 96.5,274.5C 95.3951,273.4 94.0618,272.733 92.5,272.5C 92.5,272.167 92.5,271.833 92.5,271.5C 93.4345,270.432 93.7678,269.099 93.5,267.5 Z"/></g>
<g><path style="opacity:1" fill="#754383" d="M 107.5,272.5 C 109.5,272.5 111.5,272.5 113.5,272.5C 114.391,273.261 115.058,274.261 115.5,275.5C 114.777,277.782 114.443,280.116 114.5,282.5C 113.5,282.5 112.5,282.5 111.5,282.5C 111.737,281.209 111.404,280.209 110.5,279.5C 112.319,278.064 112.652,276.397 111.5,274.5C 110.522,274.977 109.689,275.643 109,276.5C 108.922,278.657 108.755,280.657 108.5,282.5C 107.513,279.232 107.18,275.898 107.5,272.5 Z"/></g>
<g><path style="opacity:1" fill="#8d6973" d="M 59.5,272.5 C 59.5,275.833 59.5,279.167 59.5,282.5C 61.8333,282.5 64.1667,282.5 66.5,282.5C 64.0521,283.473 61.3854,283.806 58.5,283.5C 58.5,280.5 58.5,277.5 58.5,274.5C 58.3284,273.508 58.6618,272.842 59.5,272.5 Z"/></g>
<g><path style="opacity:1" fill="#744a86" d="M 68.5,272.5 C 70.1238,272.36 71.2904,273.027 72,274.5C 73.2697,272.422 74.7697,272.088 76.5,273.5C 76.6641,276.187 76.4974,278.854 76,281.5C 73.6667,284.167 71.3333,284.167 69,281.5C 68.502,278.518 68.3354,275.518 68.5,272.5 Z"/></g>
<g><path style="opacity:1" fill="#754983" d="M 59.5,272.5 C 61.5,272.5 63.5,272.5 65.5,272.5C 65.8333,273.167 66.1667,273.833 66.5,274.5C 65.1667,277.167 65.1667,279.833 66.5,282.5C 64.1667,282.5 61.8333,282.5 59.5,282.5C 59.5,279.167 59.5,275.833 59.5,272.5 Z"/></g>
<g><path style="opacity:1" fill="#764384" d="M 98.5,272.5 C 101.059,272.198 103.393,272.532 105.5,273.5C 105.5,273.833 105.5,274.167 105.5,274.5C 104.167,274.5 102.833,274.5 101.5,274.5C 101.5,275.5 101.5,276.5 101.5,277.5C 105.5,277.833 105.5,278.167 101.5,278.5C 101.5,279.5 101.5,280.5 101.5,281.5C 102.873,281.343 104.207,281.51 105.5,282C 103.19,282.497 100.857,282.663 98.5,282.5C 98.5,279.167 98.5,275.833 98.5,272.5 Z"/></g>
<g><path style="opacity:1" fill="#754584" d="M 78.5,272.5 C 79.1667,272.5 79.8333,272.5 80.5,272.5C 83.0101,272.054 85.0101,272.72 86.5,274.5C 85.5504,277.068 85.5504,279.568 86.5,282C 85.552,282.483 84.552,282.649 83.5,282.5C 83.719,281.325 83.3857,280.325 82.5,279.5C 81.5713,280.689 81.238,282.022 81.5,283.5C 80.5,283.5 79.5,283.5 78.5,283.5C 78.5,279.833 78.5,276.167 78.5,272.5 Z"/></g>
<g><path style="opacity:1" fill="#825b76" d="M 107.5,272.5 C 107.18,275.898 107.513,279.232 108.5,282.5C 108.755,280.657 108.922,278.657 109,276.5C 109.689,275.643 110.522,274.977 111.5,274.5C 112.652,276.397 112.319,278.064 110.5,279.5C 110.5,280.833 110.5,282.167 110.5,283.5C 109.167,283.5 107.833,283.5 106.5,283.5C 106.81,280.287 106.477,277.287 105.5,274.5C 105.5,274.167 105.5,273.833 105.5,273.5C 106.167,273.167 106.833,272.833 107.5,272.5 Z"/></g>
<g><path style="opacity:1" fill="#764385" d="M 92.5,272.5 C 94.0618,272.733 95.3951,273.4 96.5,274.5C 94.9867,275.309 93.3201,275.476 91.5,275C 89.9722,277.518 90.3055,279.685 92.5,281.5C 94.4879,280.711 94.8213,279.545 93.5,278C 94.448,277.517 95.448,277.351 96.5,277.5C 96.7135,279.144 96.3802,280.644 95.5,282C 93.0709,282.703 90.7375,282.537 88.5,281.5C 88.3359,278.813 88.5026,276.146 89,273.5C 90.0113,272.663 91.1779,272.33 92.5,272.5 Z"/></g>
<g><path style="opacity:1" fill="#2a2a5d" d="M 201.5,298.5 C 207.909,303.403 213.909,308.903 219.5,315C 208.167,315.667 196.833,315.667 185.5,315C 191.036,309.631 196.37,304.131 201.5,298.5 Z"/></g>
</svg>
